Patient4_TMGait_0pt4_02_left_17_GRF.mot
version=1
nRows=32
nColumns=19
inDegrees=no
endheader
time	F1x	F1y	F1z	M1x	M1y	M1z	F2x	F2y	F2z	M2x	M2y	M2z	EC1x	EC1y	EC1z	EC2x	EC2y	EC2z
22.71	1.6379	3.8636	0.0020615	-2.0162	0.225	-2.9382	-37.1153	786.177	-70.8436	303.9059	94.1596	909.6896	-0.0592	0.0182	-0.0073	-0.0462	0.0165	0.9585
22.724	1.1023	3.2721	0.033258	-1.5856	0.099968	-1.0904	-35.0981	770.1248	-69.1971	297.8765	91.6183	891.2784	-0.0592	0.0182	-0.0073	-0.0462	0.0165	0.9585
22.738	0.64559	2.7872	0.049312	-1.2267	0.0091774	0.4878	-32.9935	753.1179	-67.335	291.3047	88.6801	871.2045	-0.0592	0.0182	-0.0073	-0.0462	0.0165	0.9585
22.752	0.28881	2.439	0.064259	-0.96414	-0.056886	1.7187	-30.8503	736.8205	-65.4707	284.8226	85.5969	851.2863	-0.0592	0.0182	-0.0073	-0.0462	0.0165	0.9585
22.766	0.03211	2.2278	0.081569	-0.79779	-0.10405	2.6081	-28.6722	722.897	-63.8133	279.0906	82.6288	833.3917	-0.0592	0.0182	-0.0073	-0.0462	0.0165	0.9585
22.78	-0.13876	2.1242	0.10224	-0.70904	-0.14189	3.1816	-26.4414	712.7871	-62.5344	274.7001	79.9984	819.165	-0.0592	0.0182	-0.0073	-0.0462	0.0165	0.9585
22.794	-0.2551	2.084	0.13003	-0.67068	-0.18702	3.4843	-24.1522	707.5068	-61.7262	272.0931	77.8442	809.7909	-0.0592	0.0182	-0.0073	-0.0462	0.0165	0.9585
22.808	-0.3391	2.0427	0.16105	-0.65063	-0.2459	3.5429	-21.8176	707.5024	-61.4055	271.5001	76.2226	805.8276	-0.0592	0.0182	-0.0073	-0.0462	0.0165	0.9585
22.822	-0.41753	1.9176	0.20592	-0.60938	-0.33646	3.3554	-19.4521	712.6178	-61.5041	272.9189	75.0917	807.1723	-0.0592	0.0182	-0.0073	-0.0462	0.0165	0.9585
22.836	-0.50496	1.6246	0.25842	-0.51207	-0.45424	2.8896	-17.063	722.1179	-61.9063	276.1142	74.344	813.0852	-0.0592	0.0182	-0.0073	-0.0462	0.0165	0.9585
22.85	-0.60817	1.078	0.3262	-0.32643	-0.60243	2.0821	-14.654	734.7445	-62.4745	280.631	73.8365	822.2494	-0.0592	0.0182	-0.0073	-0.0462	0.0165	0.9585
22.864	-0.71685	0.2025	0.40368	-0.024427	-0.76571	0.86608	-12.2211	748.8335	-63.098	285.8331	73.4406	832.9111	-0.0592	0.0182	-0.0073	-0.0462	0.0165	0.9585
22.878	-0.80344	-1.0562	0.47739	0.41324	-0.91335	-0.80823	-9.775	762.5173	-63.7018	290.9851	73.0619	843.1128	-0.0592	0.0182	-0.0073	-0.0462	0.0165	0.9585
22.892	-0.82054	-2.6833	0.53366	0.98166	-1.0063	-2.9089	-7.3785	773.9883	-64.243	295.3602	72.6502	850.991	-0.0592	0.0182	-0.0073	-0.0462	0.0165	0.9585
22.906	-0.68841	-4.5502	0.54236	1.6358	-0.97938	-5.278	-5.1266	781.8101	-64.6992	298.3701	72.196	855.1004	-0.0592	0.0182	-0.0073	-0.0462	0.0165	0.9585
22.92	-0.31048	-6.3735	0.47727	2.2743	-0.76503	-7.5661	-3.1248	785.2462	-65.0603	299.6964	71.7165	854.7569	-0.0592	0.0182	-0.0073	-0.0462	0.0165	0.9585
22.934	0.43214	-7.6273	0.28573	2.7109	-0.26503	-9.1249	-1.4662	784.3932	-65.3444	299.3463	71.2582	850.1628	-0.0592	0.0182	-0.0073	-0.0462	0.0165	0.9585
22.948	1.6618	-7.4827	-0.081699	2.6559	0.62068	-8.9317	-0.18438	780.0443	-65.5925	297.6021	70.8748	842.2272	-0.0592	0.0182	-0.0073	-0.0462	0.0165	0.9585
22.962	3.4867	-4.7685	-0.69137	1.6996	2.0042	-5.5395	0.7746	773.3314	-65.8712	294.8852	70.6191	832.1697	-0.0592	0.0182	-0.0073	-0.0462	0.0165	0.9585
22.976	5.9442	2.0132	-1.5954	-0.68534	3.9601	2.9036	1.5762	765.331	-66.2376	291.6077	70.494	821.0978	-0.0592	0.0182	-0.0073	-0.0462	0.0165	0.9585
22.99	8.9342	14.5945	-2.8095	-5.1076	6.4718	18.5195	2.4368	756.6898	-66.7061	288.0317	70.4379	809.6218	-0.0592	0.0182	-0.0073	-0.0462	0.0165	0.9585
23.004	12.1394	34.6775	-4.2853	-12.1623	9.363	43.3796	3.5439	747.3812	-67.1881	284.1732	70.2974	797.6351	-0.0592	0.0182	-0.0073	-0.0462	0.0165	0.9585
23.018	14.9064	63.4275	-5.851	-22.2563	12.1906	78.8982	5.0059	736.6344	-67.4703	279.7741	69.8238	784.2837	-0.0592	0.0182	-0.0073	-0.0462	0.0165	0.9585
23.032	16.1339	100.7349	-7.1814	-35.3498	14.167	124.9063	6.8187	723.0163	-67.2451	274.3288	68.7104	768.0689	-0.0592	0.0182	-0.0073	-0.0462	0.0165	0.9585
23.046	14.3651	144.3678	-7.7181	-50.6507	14.1175	178.612	8.8752	704.6664	-66.1621	267.1671	66.6434	747.0563	-0.0592	0.0182	-0.0073	-0.0462	0.0165	0.9585
23.06	9.1924	190.0985	-6.6104	-66.6277	10.8782	234.7873	11.0018	679.736	-63.9296	257.6106	63.3933	719.3326	-0.0592	0.0182	-0.0073	-0.0462	0.0165	0.9585
23.074	2.2003	233.4616	-3.1535	-81.6726	4.2545	287.781	13.0258	646.894	-60.431	245.155	58.9168	683.5274	-0.0592	0.0182	-0.0073	-0.0462	0.0165	0.9585
23.088	-4.7212	273.0027	2.1815	-95.2826	-4.5135	335.4458	14.7951	605.645	-55.818	229.583	53.4338	639.1325	-0.0592	0.0182	-0.0073	-0.0462	0.0165	0.9585
23.102	-10.5858	310.5871	8.881	-108.1201	-14.4077	379.8548	16.1705	556.265	-50.441	210.9592	47.3479	586.4349	-0.0592	0.0182	-0.0073	-0.0462	0.0165	0.9585
23.116	-14.9899	349.2922	16.1336	-121.2911	-24.3326	424.6715	17.0075	499.7103	-44.6014	189.6108	41.0117	526.4233	-0.0592	0.0182	-0.0073	-0.0462	0.0165	0.9585
23.13	-17.9988	391.6102	23.5079	-135.682	-33.7644	472.963	17.1363	437.4772	-38.4887	166.0895	34.6716	460.6491	-0.0592	0.0182	-0.0073	-0.0462	0.0165	0.9585
23.144	-19.8428	438.5805	30.4994	-151.6738	-42.2238	525.9913	16.3551	371.5811	-32.2209	141.1579	28.5111	391.2126	-0.0592	0.0182	-0.0073	-0.0462	0.0165	0.9585
